<svg xmlns="http://www.w3.org/2000/svg" width="160" height="160" viewBox="-2.279 -2.951 160 160" overflow="visible" xml:space="preserve"><circle fill-rule="evenodd" clip-rule="evenodd" fill="#FFF" cx="77.86" cy="77.86" r="77.86"/><path fill-rule="evenodd" clip-rule="evenodd" fill="#181244" d="m22.59 80.954.01 9.476v42.271a79.2 79.2 0 0 0 2.61 2.509V90.43l.01-9.476c-.431-3.158-2.198-3.158-2.63 0zm37.788-31.132c-.44-4.006-2.171-4.006-2.611 0v60.093l-.01 12.018c.431 4.007 2.199 4.007 2.63 0l-.009-12.018V49.822zm-28.996 30.13.01 10.478v49.906a78.412 78.412 0 0 0 2.61 1.855V90.43l.01-10.478c-.431-3.492-2.198-3.492-2.63 0zM48.966 59.78l.01 12.012v60.054c.44 4.004 2.17 4.004 2.61 0V71.792l.009-12.012c-.43-4.003-2.199-4.003-2.629 0zM13.798 77.517l.01 8.251v36.344a77.504 77.504 0 0 0 2.611 3.545V85.768l.01-8.251c-.432-2.75-2.199-2.75-2.631 0zm131.886-37.882v25.541c.439 2.412 2.171 2.412 2.61 0V44.66a78.027 78.027 0 0 0-2.61-5.025zM5.007 71.209l.01 7.616v26.548a77.627 77.627 0 0 0 2.61 6.131V78.825l.01-7.616c-.383-2.539-2.246-2.539-2.63 0zm131.885 5.939c.44 3.401 2.171 3.401 2.611 0V30.321a78.595 78.595 0 0 0-2.611-3.199v50.026zM66.549 41.591l.009 11.578v57.891c.44 3.859 2.171 3.859 2.61 0V53.169l.01-11.578c-.43-3.859-2.198-3.859-2.629 0zm52.75-10.58.01 11.251V98.52c.439 3.751 2.171 3.751 2.61 0V42.262l.011-11.251c-.433-3.751-2.2-3.751-2.631 0zm-8.792 13.158.011 11.001v55.006c.439 3.667 2.17 3.667 2.61 0V55.17l.01-11.001c-.432-3.667-2.199-3.667-2.631 0zm17.583-21.374.011 11.183v55.916c.439 3.729 2.171 3.729 2.61 0V33.978l.01-11.183c-.432-3.729-2.199-3.729-2.631 0zm-26.375 32.487.011 10.934v54.663c.439 3.645 2.171 3.645 2.61 0V66.216l.01-10.934c-.432-3.643-2.199-3.643-2.631 0zM75.34 40.841l.01 10.955v54.777c.44 3.652 2.171 3.652 2.611 0V51.796l.01-10.955c-.432-3.653-2.2-3.653-2.631 0zM40.173 73.792l.01 11.79v58.953c.075.666.188 1.21.325 1.65.527.289 1.066.559 1.601.835.299-.469.552-1.294.685-2.485V85.582l.01-11.79c-.432-3.931-2.199-3.931-2.631 0zm52.751-20.316.01 10.637v53.183c.439 3.546 2.171 3.546 2.611 0V64.112l.01-10.637c-.432-3.545-2.2-3.545-2.631.001zm-8.792-7.185.011 10.75v53.753c.439 3.583 2.17 3.583 2.61 0V57.041l.01-10.75c-.433-3.584-2.199-3.584-2.631 0z"/></svg>